<?xml version="1.0" encoding="UTF-8"?>
<!DOCTYPE svg PUBLIC "-//W3C//DTD SVG 1.1//EN" "http://www.w3.org/Graphics/SVG/1.1/DTD/svg11.dtd">
<svg xmlns="http://www.w3.org/2000/svg" version="1.1" width="70px" height="45px" style="shape-rendering:geometricPrecision; text-rendering:geometricPrecision; image-rendering:optimizeQuality; fill-rule:evenodd; clip-rule:evenodd" xmlns:xlink="http://www.w3.org/1999/xlink">
<g><path style="opacity:0.004" fill="#000000" d="M 26.5,-0.5 C 26.8333,-0.5 27.1667,-0.5 27.5,-0.5C 27.1667,2.16667 26.8333,2.16667 26.5,-0.5 Z"/></g>
<g><path style="opacity:0.595" fill="#000000" d="M 68.5,24.5 C 67.5655,25.5676 67.2322,26.901 67.5,28.5C 64.1405,27.7904 62.3071,29.1238 62,32.5C 60.3155,34.7007 58.3155,35.3673 56,34.5C 53.8526,35.1125 51.686,35.7792 49.5,36.5C 48.2087,39.6254 46.042,41.9588 43,43.5C 41.2458,42.1813 39.7458,40.5147 38.5,38.5C 37.675,37.6143 36.675,37.281 35.5,37.5C 35.6495,36.448 35.4828,35.448 35,34.5C 34.6557,38.8525 32.3224,41.5192 28,42.5C 26.6739,42.2451 25.6739,41.5784 25,40.5C 21.981,42.0574 18.8144,43.0574 15.5,43.5C 11.814,42.7579 11.1473,41.2579 13.5,39C 12.1577,36.306 11.1577,33.4726 10.5,30.5C 9.61432,31.325 9.28099,32.325 9.5,33.5C 6.51763,33.9629 3.51763,34.2962 0.5,34.5C 0.844204,31.4377 1.51087,28.4377 2.5,25.5C 3.5237,24.1468 4.85703,23.4802 6.5,23.5C 6.18853,19.14 8.18853,16.4734 12.5,15.5C 13.8698,12.5817 14.8698,9.58173 15.5,6.5C 19.5463,6.85005 23.3797,6.18339 27,4.5C 29.7947,5.78252 32.6281,5.78252 35.5,4.5C 35.8333,3.83333 36.1667,3.16667 36.5,2.5C 39.0865,1.51998 41.7531,1.18665 44.5,1.5C 44.2787,5.79539 45.6121,6.46205 48.5,3.5C 50.136,4.30388 51.636,5.30388 53,6.5C 53.3333,6.16667 53.6667,5.83333 54,5.5C 56.8082,8.60338 56.9749,11.9367 54.5,15.5C 56.0453,16.4519 57.712,16.7852 59.5,16.5C 59.2889,21.087 60.7889,21.7536 64,18.5C 66.6924,19.5309 68.1924,21.5309 68.5,24.5 Z M 40.5,7.5 C 44.7561,6.97772 48.4228,8.14439 51.5,11C 50.5495,14.0567 50.2161,17.2234 50.5,20.5C 54.2283,21.7153 57.8949,23.2153 61.5,25C 59.3485,25.2649 57.6819,26.2649 56.5,28C 56.9054,28.9454 57.572,29.6121 58.5,30C 56.567,30.2511 54.7337,30.7511 53,31.5C 52.3678,29.4687 51.2012,27.802 49.5,26.5C 47.2838,28.7029 45.9505,31.3696 45.5,34.5C 43.604,35.4656 41.604,35.7989 39.5,35.5C 39.5,33.1667 39.5,30.8333 39.5,28.5C 36.1954,28.2124 33.3621,29.2124 31,31.5C 30.7883,33.7801 29.9549,35.7801 28.5,37.5C 25.373,37.98 22.5396,38.98 20,40.5C 16.6502,37.1921 15.1502,33.1921 15.5,28.5C 12.1501,28.665 8.81677,28.4983 5.5,28C 6.90029,26.5619 8.56696,25.7286 10.5,25.5C 10.5,23.8333 10.5,22.1667 10.5,20.5C 14.2947,21.0415 16.2947,19.3748 16.5,15.5C 19.8606,14.1579 22.8606,12.3246 25.5,10C 29.2255,9.24009 32.8922,9.40676 36.5,10.5C 38.483,10.1852 39.8163,9.18517 40.5,7.5 Z"/></g>
<g><path style="opacity:0.026" fill="#000000" d="M 67.5,6.5 C 66.1417,7.62563 64.8084,7.62563 63.5,6.5C 64.9584,5.21798 66.2918,5.21798 67.5,6.5 Z"/></g>
<g><path style="opacity:0.004" fill="#000000" d="M 67.5,6.5 C 68.8333,7.16667 68.8333,7.16667 67.5,6.5 Z"/></g>
<g><path style="opacity:0.046" fill="#000000" d="M 60.5,14.5 C 58.663,14.3605 58.3296,13.6939 59.5,12.5C 60.2975,12.9569 60.6309,13.6236 60.5,14.5 Z"/></g>
<g><path style="opacity:0.043" fill="#000000" d="M 60.5,14.5 C 61.8734,14.3433 63.2068,14.51 64.5,15C 62.9343,15.765 61.6009,15.5983 60.5,14.5 Z"/></g>
<g><path style="opacity:0.004" fill="#000000" d="M 68.5,24.5 C 68.8333,24.5 69.1667,24.5 69.5,24.5C 69.5,24.8333 69.5,25.1667 69.5,25.5C 69.1667,25.1667 68.8333,24.8333 68.5,24.5 Z"/></g>
<g><path style="opacity:0.047" fill="#000000" d="M 15.5,44.5 C 15.5,44.1667 15.5,43.8333 15.5,43.5C 16.4916,43.3284 17.1583,43.6618 17.5,44.5C 16.8333,44.5 16.1667,44.5 15.5,44.5 Z"/></g>
</svg>
