<?xml version="1.0" encoding="UTF-8"?>
<!DOCTYPE svg PUBLIC "-//W3C//DTD SVG 1.1//EN" "http://www.w3.org/Graphics/SVG/1.1/DTD/svg11.dtd">
<svg xmlns="http://www.w3.org/2000/svg" version="1.1" width="155px" height="180px" style="shape-rendering:geometricPrecision; text-rendering:geometricPrecision; image-rendering:optimizeQuality; fill-rule:evenodd; clip-rule:evenodd" xmlns:xlink="http://www.w3.org/1999/xlink">
<g><path style="opacity:0.628" fill="#000000" d="M 112.5,-0.5 C 113.833,-0.5 115.167,-0.5 116.5,-0.5C 117.673,1.5041 119.34,3.0041 121.5,4C 120.552,4.48278 119.552,4.64945 118.5,4.5C 117.833,7.83333 117.167,11.1667 116.5,14.5C 114.04,15.9366 111.374,16.9366 108.5,17.5C 108.5,19.1667 108.5,20.8333 108.5,22.5C 115.329,23.5546 121.995,25.2213 128.5,27.5C 128.808,29.924 128.474,32.2573 127.5,34.5C 124.425,38.9576 121.092,43.2909 117.5,47.5C 116.571,48.6888 116.238,50.0222 116.5,51.5C 115.448,51.3505 114.448,51.5172 113.5,52C 114.833,54 114.833,56 113.5,58C 114.617,59.8921 116.284,60.7254 118.5,60.5C 118.358,64.0003 119.692,66.6669 122.5,68.5C 123.331,74.8072 123.831,81.1406 124,87.5C 129.803,91.1179 133.969,96.1179 136.5,102.5C 135.833,103.833 135.167,105.167 134.5,106.5C 136.684,112.66 138.017,118.993 138.5,125.5C 145.442,125.256 150.775,127.923 154.5,133.5C 154.5,135.5 154.5,137.5 154.5,139.5C 153.035,143.34 151.035,147.006 148.5,150.5C 145.43,151.656 143.097,153.656 141.5,156.5C 141.667,157.167 141.833,157.833 142,158.5C 144.608,157.027 146.775,157.527 148.5,160C 147.277,162.057 146.277,164.223 145.5,166.5C 143.092,167.216 141.092,168.549 139.5,170.5C 135.719,171.452 131.886,172.119 128,172.5C 119.172,171.333 110.338,170.333 101.5,169.5C 101.719,170.675 101.386,171.675 100.5,172.5C 98.1667,171.167 95.8333,171.167 93.5,172.5C 91.4934,168.273 88.1601,166.273 83.5,166.5C 82.6987,170.791 80.1987,173.458 76,174.5C 72.2661,172.834 68.5994,171.167 65,169.5C 62.82,171.436 60.6533,173.436 58.5,175.5C 57.3112,176.429 55.9778,176.762 54.5,176.5C 54.5,175.167 54.5,173.833 54.5,172.5C 52.8333,172.5 51.1667,172.5 49.5,172.5C 49.5,170.833 49.5,169.167 49.5,167.5C 51.604,167.799 53.604,167.466 55.5,166.5C 58.6156,162.782 62.2823,159.782 66.5,157.5C 67.4287,156.311 67.762,154.978 67.5,153.5C 69.1667,153.5 70.8333,153.5 72.5,153.5C 72.5,152.5 72.5,151.5 72.5,150.5C 82.7566,151.112 83.09,149.779 73.5,146.5C 72.7189,145.271 72.2189,143.938 72,142.5C 69.8209,144.637 67.3209,144.971 64.5,143.5C 60.7326,141.115 59.7326,137.781 61.5,133.5C 68.0814,132.531 74.0814,130.198 79.5,126.5C 80.6808,124.802 80.6808,123.135 79.5,121.5C 73.9061,123.521 71.5728,121.521 72.5,115.5C 76.9319,114.81 77.9319,112.81 75.5,109.5C 76.2738,107.06 77.9405,105.727 80.5,105.5C 83.5672,107.348 86.7339,109.014 90,110.5C 91.3333,107.833 92.6667,107.833 94,110.5C 96.1854,102.666 95.6854,94.9993 92.5,87.5C 92.6493,85.6803 93.3159,84.1803 94.5,83C 92.8654,82.4604 91.5321,82.9604 90.5,84.5C 89.8076,83.9747 89.3076,83.3081 89,82.5C 87.271,85.0789 85.4377,85.0789 83.5,82.5C 77.422,86.5714 71.0887,90.238 64.5,93.5C 64.032,95.1338 63.032,96.3005 61.5,97C 62.7042,98.3528 63.3708,100.019 63.5,102C 62.436,106.82 61.436,111.653 60.5,116.5C 59.2115,119.389 57.2115,121.722 54.5,123.5C 53.6518,125.409 53.3184,127.409 53.5,129.5C 50.4079,128.664 47.2413,127.997 44,127.5C 35.9861,128.884 28.3195,131.217 21,134.5C 15.6157,132.877 10.1157,132.21 4.5,132.5C 4.28649,130.856 4.61983,129.356 5.5,128C 3.86586,127.506 2.19919,127.34 0.5,127.5C 0.784479,125.585 0.451145,123.919 -0.5,122.5C -0.5,121.167 -0.5,119.833 -0.5,118.5C 0.473444,118.013 1.47344,117.513 2.5,117C -0.0788902,115.271 -0.0788902,113.438 2.5,111.5C 4.74269,110.526 7.07603,110.192 9.5,110.5C 9.5,108.833 9.5,107.167 9.5,105.5C 16.2376,105.064 18.9043,101.398 17.5,94.5C 11.6775,94.4178 9.34416,91.4178 10.5,85.5C 11.9778,85.762 13.3112,85.4287 14.5,84.5C 14.9005,82.5658 15.9005,81.0658 17.5,80C 14.8333,77.6667 14.8333,75.3333 17.5,73C 20.5,72.3333 23.5,72.3333 26.5,73C 29.2515,74.7508 32.2515,75.5842 35.5,75.5C 34.9084,72.8728 34.5751,70.2062 34.5,67.5C 36.1992,67.6602 37.8659,67.4935 39.5,67C 37.5946,66.1739 37.2612,65.0072 38.5,63.5C 40.5801,62.6694 42.5801,61.6694 44.5,60.5C 47.3368,61.9057 50.3368,62.7391 53.5,63C 53.9981,64.1581 54.8315,64.9915 56,65.5C 59.8186,63.2092 63.8186,62.8759 68,64.5C 72.082,62.6053 76.2487,60.9387 80.5,59.5C 82.9119,57.6414 84.0786,55.3081 84,52.5C 81.5782,56.4874 79.5782,56.1541 78,51.5C 77.51,50.2068 77.3433,48.8734 77.5,47.5C 76.5,47.5 75.5,47.5 74.5,47.5C 73.8219,43.0303 74.1552,38.5303 75.5,34C 76.5157,31.8238 78.1824,30.6571 80.5,30.5C 80.5,29.5 80.5,28.5 80.5,27.5C 81.8333,27.5 83.1667,27.5 84.5,27.5C 84.7852,25.712 84.4519,24.0453 83.5,22.5C 80.0007,20.3078 79.6674,17.6411 82.5,14.5C 84.0453,13.5481 85.712,13.2148 87.5,13.5C 88.9473,7.88942 92.114,3.55609 97,0.5C 98.724,0.954691 100.224,1.78802 101.5,3C 106.833,3.66667 112.167,3.66667 117.5,3C 115.027,2.78048 113.36,1.61381 112.5,-0.5 Z M 104.5,58.5 C 104.5,59.8333 104.5,61.1667 104.5,62.5C 106.467,62.7394 108.301,62.4061 110,61.5C 111.506,63.1742 113.339,64.1742 115.5,64.5C 115.248,67.3699 116.248,69.7033 118.5,71.5C 119.374,78.4879 120.041,85.4879 120.5,92.5C 123.635,92.8066 126.302,94.1399 128.5,96.5C 129.535,101.866 130.868,107.032 132.5,112C 131.484,112.519 130.818,113.353 130.5,114.5C 132.554,117.233 133.887,120.233 134.5,123.5C 130.515,123.44 128.848,125.44 129.5,129.5C 130.5,129.5 131.5,129.5 132.5,129.5C 132.5,130.5 132.5,131.5 132.5,132.5C 136.25,133.026 139.416,132.026 142,129.5C 144.168,130.502 146.335,131.502 148.5,132.5C 149.696,133.559 150.363,134.893 150.5,136.5C 149.733,140.701 147.9,144.367 145,147.5C 144.692,146.692 144.192,146.025 143.5,145.5C 141.422,147.986 138.755,148.986 135.5,148.5C 135.5,150.167 135.5,151.833 135.5,153.5C 129.784,155.251 129.284,157.918 134,161.5C 136.795,162.185 139.628,162.685 142.5,163C 132.392,169.831 122.058,169.998 111.5,163.5C 109.547,162.844 107.547,162.511 105.5,162.5C 105.5,163.5 105.5,164.5 105.5,165.5C 102.289,165.012 99.456,165.679 97,167.5C 92.2735,163.372 86.7735,161.872 80.5,163C 79.3492,165.464 78.3492,167.964 77.5,170.5C 75.6412,170.539 74.3079,169.706 73.5,168C 70.1832,167.502 66.8499,167.335 63.5,167.5C 63.5,166.5 63.5,165.5 63.5,164.5C 65.5,163.833 67.5,163.167 69.5,162.5C 69.5,160.833 69.5,159.167 69.5,157.5C 71.1667,157.5 72.8333,157.5 74.5,157.5C 74.5,156.5 74.5,155.5 74.5,154.5C 79.4122,155.962 84.4122,156.795 89.5,157C 90.8586,155.796 91.8586,154.296 92.5,152.5C 97.1266,151.214 99.46,148.214 99.5,143.5C 94.9405,145.852 90.1072,147.519 85,148.5C 84.0201,146.941 83.1867,145.274 82.5,143.5C 80.6293,142.233 78.7959,142.233 77,143.5C 76.5065,141.866 76.3398,140.199 76.5,138.5C 72.4454,138.824 68.4454,138.491 64.5,137.5C 71.9803,136.577 78.3137,133.577 83.5,128.5C 84.0634,127.061 84.3968,125.561 84.5,124C 84.1854,120.559 83.1854,117.392 81.5,114.5C 86.3008,114.221 90.9675,114.888 95.5,116.5C 97.5351,115.796 99.5351,115.129 101.5,114.5C 101.457,111.912 100.457,109.746 98.5,108C 99.448,107.517 100.448,107.351 101.5,107.5C 102.856,102.933 103.856,98.2663 104.5,93.5C 102.801,93.6602 101.134,93.4935 99.5,93C 98.898,90.9637 97.898,89.1303 96.5,87.5C 97.8848,86.4495 98.8848,85.1161 99.5,83.5C 101.045,82.5481 102.712,82.2148 104.5,82.5C 104.5,80.8333 104.5,79.1667 104.5,77.5C 99.482,77.6133 94.482,77.9466 89.5,78.5C 89.1667,74.5 88.8333,74.5 88.5,78.5C 78.9626,78.6918 70.796,82.0251 64,88.5C 62.6439,87.6198 61.1439,87.2865 59.5,87.5C 59.5228,89.5996 58.8561,91.4329 57.5,93C 58.5465,94.6803 59.2132,96.5136 59.5,98.5C 59.1876,107.756 56.0209,115.756 50,122.5C 45.8852,123.744 41.7185,123.744 37.5,122.5C 35.9996,122.453 34.9996,123.119 34.5,124.5C 31.2317,125.487 27.8984,125.82 24.5,125.5C 24.5,126.5 24.5,127.5 24.5,128.5C 20.8333,128.5 17.1667,128.5 13.5,128.5C 13.5,126.5 13.5,124.5 13.5,122.5C 10.5,122.5 7.5,122.5 4.5,122.5C 4.5,121.5 4.5,120.5 4.5,119.5C 10.5804,120.58 13.9137,118.08 14.5,112C 18.4841,112.186 22.4841,112.186 26.5,112C 27.9733,111.29 28.6399,110.124 28.5,108.5C 27.1667,108.5 25.8333,108.5 24.5,108.5C 24.5,107.5 24.5,106.5 24.5,105.5C 22.549,105.227 21.049,105.893 20,107.5C 20.607,102.762 23.4403,100.762 28.5,101.5C 28.5,99.5 28.5,97.5 28.5,95.5C 26.1667,95.5 23.8333,95.5 21.5,95.5C 20.7724,91.8149 18.4391,89.9816 14.5,90C 17.4198,88.7655 20.4198,87.7655 23.5,87C 24.4231,84.9592 24.7564,82.7925 24.5,80.5C 23.5,80.5 22.5,80.5 21.5,80.5C 21.5,79.1667 21.5,77.8333 21.5,76.5C 25.5601,75.8482 27.5601,77.5149 27.5,81.5C 29.451,81.7733 30.951,81.1066 32,79.5C 33.4653,81.915 35.632,82.915 38.5,82.5C 38.0098,77.4932 38.8432,76.8265 41,80.5C 43.6339,77.8221 45.4672,74.6554 46.5,71C 44.9652,71.6609 43.2985,71.9942 41.5,72C 42.9959,69.7988 43.9959,67.2988 44.5,64.5C 45.8928,65.8631 47.5595,66.6964 49.5,67C 48.6919,67.3076 48.0253,67.8076 47.5,68.5C 49.6721,69.2048 51.6721,70.2048 53.5,71.5C 55.2199,70.0451 57.2199,69.2117 59.5,69C 69.4249,69.034 78.4249,66.2006 86.5,60.5C 88.7427,59.5258 91.076,59.1924 93.5,59.5C 93.5,58.1667 93.5,56.8333 93.5,55.5C 92.0222,55.762 90.6888,55.4287 89.5,54.5C 88.6258,52.2534 88.2924,49.9201 88.5,47.5C 85.8023,47.4503 83.6356,48.4503 82,50.5C 81.5172,49.552 81.3505,48.552 81.5,47.5C 85.9287,47.5433 86.9287,46.0433 84.5,43C 86.1012,42.7266 87.6012,42.2266 89,41.5C 89.1805,39.5116 89.0138,37.5116 88.5,35.5C 86.269,36.6238 83.9357,37.1238 81.5,37C 86.1471,34.8612 88.4805,31.1946 88.5,26C 88.3996,23.6977 87.733,21.6977 86.5,20C 87.9003,18.5619 89.567,17.7286 91.5,17.5C 91.8333,14.5 93.5,12.8333 96.5,12.5C 96.5,10.8333 96.5,9.16667 96.5,7.5C 98.2769,7.78627 99.9436,8.45293 101.5,9.5C 104.979,7.83817 108.646,7.1715 112.5,7.5C 112.5,9.16667 112.5,10.8333 112.5,12.5C 108.584,14.3296 104.584,15.9963 100.5,17.5C 100.5,18.5 100.5,19.5 100.5,20.5C 99.5,20.5 98.5,20.5 97.5,20.5C 97.5,22.8333 97.5,25.1667 97.5,27.5C 106.592,26.2491 115.592,26.9158 124.5,29.5C 124.264,31.9732 122.931,33.6399 120.5,34.5C 119.959,36.5352 119.292,38.5352 118.5,40.5C 115.947,42.5968 113.614,44.9302 111.5,47.5C 109.556,48.1892 107.556,48.6892 105.5,49C 107.125,49.8525 107.458,50.8525 106.5,52C 110.449,52.8068 110.449,53.3068 106.5,53.5C 106.663,55.8568 106.497,58.1902 106,60.5C 105.722,59.5842 105.222,58.9175 104.5,58.5 Z"/></g>
<g><path style="opacity:0.132" fill="#000000" d="M 80.5,9.5 C 81.7759,10.3864 81.7759,11.3864 80.5,12.5C 79.4679,14.0396 78.1346,14.5396 76.5,14C 78.0414,12.6288 79.3747,11.1288 80.5,9.5 Z"/></g>
<g><path style="opacity:0.008" fill="#000000" d="M 72.5,16.5 C 73.8333,17.1667 73.8333,17.1667 72.5,16.5 Z"/></g>
<g><path style="opacity:0.021" fill="#000000" d="M 104.5,58.5 C 103.833,58.5 103.167,58.5 102.5,58.5C 102.982,62.3399 101.982,62.3399 99.5,58.5C 100.676,56.3227 102.51,54.9893 105,54.5C 105.579,55.9285 105.412,57.2618 104.5,58.5 Z"/></g>
<g><path style="opacity:0.105" fill="#000000" d="M 84.5,86.5 C 85.0768,85.2267 85.7435,85.2267 86.5,86.5C 86.0302,87.463 85.3635,87.463 84.5,86.5 Z"/></g>
<g><path style="opacity:0.008" fill="#000000" d="M 85.5,91.5 C 86.8333,92.1667 86.8333,92.1667 85.5,91.5 Z"/></g>
<g><path style="opacity:0.016" fill="#000000" d="M 144.5,168.5 C 145.833,169.167 145.833,169.167 144.5,168.5 Z"/></g>
<g><path style="opacity:0.004" fill="#000000" d="M 142.5,170.5 C 143.833,171.167 143.833,171.167 142.5,170.5 Z"/></g>
</svg>
