<?xml version="1.0" encoding="UTF-8"?>
<!DOCTYPE svg PUBLIC "-//W3C//DTD SVG 1.1//EN" "http://www.w3.org/Graphics/SVG/1.1/DTD/svg11.dtd">
<svg xmlns="http://www.w3.org/2000/svg" version="1.1" width="112px" height="60px" style="shape-rendering:geometricPrecision; text-rendering:geometricPrecision; image-rendering:optimizeQuality; fill-rule:evenodd; clip-rule:evenodd" xmlns:xlink="http://www.w3.org/1999/xlink">
<g><path style="opacity:0.602" fill="#000000" d="M 43.5,0.5 C 45.861,0.674116 48.1944,1.00745 50.5,1.5C 50.4802,3.14297 51.1468,4.4763 52.5,5.5C 57.0808,7.18976 61.7475,8.52309 66.5,9.5C 67.8304,11.3469 67.497,12.8469 65.5,14C 66.646,14.6449 67.646,15.4783 68.5,16.5C 68.4366,15.3395 68.7699,14.0062 69.5,12.5C 72.8577,11.2803 75.8577,11.947 78.5,14.5C 82.8559,12.5077 85.1892,13.841 85.5,18.5C 88.8333,18.8333 92.1667,19.1667 95.5,19.5C 96.1878,22.5028 97.5212,25.1695 99.5,27.5C 99.3333,28.5 99.1667,29.5 99,30.5C 97.392,32.0996 95.5586,33.433 93.5,34.5C 92.5933,38.6113 90.9266,42.278 88.5,45.5C 83.1208,46.7555 77.9541,48.4221 73,50.5C 71.3419,50.3248 70.0086,49.6582 69,48.5C 67.9914,49.6582 66.6581,50.3248 65,50.5C 60.3612,48.5389 55.5278,47.5389 50.5,47.5C 49.0634,49.9598 48.0634,52.6265 47.5,55.5C 40.1138,57.0878 34.1138,55.0878 29.5,49.5C 26.7928,48.0957 24.1261,46.7624 21.5,45.5C 21.719,44.325 21.3857,43.325 20.5,42.5C 18.3268,40.8296 16.1602,39.1629 14,37.5C 11.9663,30.8831 9.46632,24.5497 6.5,18.5C 9.91557,19.1059 12.5822,18.1059 14.5,15.5C 17.5456,14.6247 20.5456,13.6247 23.5,12.5C 23.9186,11.3279 24.5853,10.3279 25.5,9.5C 28.5727,8.60193 31.5727,7.60193 34.5,6.5C 34.5,4.83333 34.5,3.16667 34.5,1.5C 37.8046,1.21236 40.6379,2.21236 43,4.5C 43.49,3.20677 43.6567,1.87344 43.5,0.5 Z M 47.5,5.5 C 48.404,6.20895 48.7373,7.20895 48.5,8.5C 50.5,8.5 52.5,8.5 54.5,8.5C 54.5,9.83333 54.5,11.1667 54.5,12.5C 58.5,11.8333 60.1667,13.5 59.5,17.5C 63.5,16.8333 65.1667,18.5 64.5,22.5C 68.8297,23.2682 72.163,21.9349 74.5,18.5C 75.7362,17.7542 77.0695,17.4208 78.5,17.5C 78.5,18.5 78.5,19.5 78.5,20.5C 80.8103,21.4569 83.1436,22.4569 85.5,23.5C 88.095,22.7628 90.7616,22.7628 93.5,23.5C 93.5,24.8333 93.5,26.1667 93.5,27.5C 94.552,27.3505 95.552,27.5172 96.5,28C 93.7159,28.8005 91.3826,30.3005 89.5,32.5C 88.5133,36.6917 86.8466,40.3584 84.5,43.5C 81.8127,43.3359 79.146,43.5026 76.5,44C 75.354,44.6449 74.354,45.4783 73.5,46.5C 70.5843,44.0063 67.5843,44.0063 64.5,46.5C 58.8156,43.8564 52.8156,42.8564 46.5,43.5C 46.7852,45.288 46.4519,46.9547 45.5,48.5C 42.9084,48.9362 40.5751,49.9362 38.5,51.5C 36.0268,49.9385 34.0268,47.9385 32.5,45.5C 30.2933,44.3652 27.9599,43.6985 25.5,43.5C 25.6499,40.0573 23.9832,38.0573 20.5,37.5C 18.7423,35.3493 17.0757,33.1826 15.5,31C 17.25,29.2458 17.9167,27.0792 17.5,24.5C 16.0222,24.762 14.6888,24.4287 13.5,23.5C 14.8333,22.1667 16.1667,20.8333 17.5,19.5C 21.3629,18.5473 25.0296,17.2139 28.5,15.5C 28.5,14.5 28.5,13.5 28.5,12.5C 32.4401,12.0349 36.1068,10.7016 39.5,8.5C 43.6441,11.4277 46.3108,10.4277 47.5,5.5 Z"/></g>
</svg>
