<?xml version="1.0" encoding="UTF-8"?>
<!DOCTYPE svg PUBLIC "-//W3C//DTD SVG 1.1//EN" "http://www.w3.org/Graphics/SVG/1.1/DTD/svg11.dtd">
<svg xmlns="http://www.w3.org/2000/svg" version="1.1" width="132px" height="162px" style="shape-rendering:geometricPrecision; text-rendering:geometricPrecision; image-rendering:optimizeQuality; fill-rule:evenodd; clip-rule:evenodd" xmlns:xlink="http://www.w3.org/1999/xlink">
<g><path style="opacity:0.601" fill="#000000" d="M 5.5,110.5 C 6.5,110.5 7.5,110.5 8.5,110.5C 6.26304,107.031 4.26304,103.364 2.5,99.5C 3.74091,97.059 5.74091,95.559 8.5,95C 5.63136,91.6111 4.29803,87.6111 4.5,83C 4.73468,79.5668 5.40134,76.2335 6.5,73C 4.66462,69.9392 4.33129,66.7725 5.5,63.5C 6.32791,62.5853 7.32791,61.9186 8.5,61.5C 10.0564,62.5471 11.7231,63.2137 13.5,63.5C 13.5,61.8333 13.5,60.1667 13.5,58.5C 15.6056,58.321 17.2723,57.321 18.5,55.5C 13.622,54.0772 12.2887,51.0772 14.5,46.5C 15.8734,46.6567 17.2068,46.49 18.5,46C 18.9551,43.6877 19.9551,41.6877 21.5,40C 19.4815,38.1427 17.8149,35.976 16.5,33.5C 16.559,31.2335 17.3923,30.5668 19,31.5C 20.2061,27.9163 22.7061,25.9163 26.5,25.5C 29.4486,26.3022 32.4486,26.6355 35.5,26.5C 35.3433,27.8734 35.51,29.2068 36,30.5C 36.7852,26.2247 38.9519,22.8914 42.5,20.5C 43.3857,19.675 43.719,18.675 43.5,17.5C 41.8333,17.5 40.1667,17.5 38.5,17.5C 38.085,14.632 39.085,12.4653 41.5,11C 39.3628,8.82089 39.0295,6.32089 40.5,3.5C 43.9653,3.47444 47.4653,3.14111 51,2.5C 53.5354,3.53494 56.0354,4.53494 58.5,5.5C 58.2148,7.28801 58.5481,8.95467 59.5,10.5C 61.5071,11.1709 63.3405,12.1709 65,13.5C 67.1716,11.4819 69.505,11.1485 72,12.5C 72.9574,15.3788 72.4574,17.8788 70.5,20C 72.5859,20.557 73.9193,19.7236 74.5,17.5C 77.1566,16.7408 79.8233,16.0742 82.5,15.5C 83.3857,14.675 83.719,13.675 83.5,12.5C 86.876,12.0484 90.2094,11.3818 93.5,10.5C 96.4878,12.0681 99.4878,14.4014 102.5,17.5C 103.308,19.4233 103.808,21.4233 104,23.5C 104.284,21.1144 105.284,20.4477 107,21.5C 109.741,25.7885 111.575,30.4552 112.5,35.5C 111.816,38.8612 111.15,42.1945 110.5,45.5C 111.93,45.4208 113.264,45.7542 114.5,46.5C 115.837,51.1737 117.17,55.8404 118.5,60.5C 117.797,63.7776 117.797,67.1109 118.5,70.5C 119.833,70.5 121.167,70.5 122.5,70.5C 122.012,73.7107 122.679,76.544 124.5,79C 123.846,82.8155 121.846,85.6489 118.5,87.5C 117.167,86.8333 115.833,86.1667 114.5,85.5C 111.107,87.7016 107.44,89.0349 103.5,89.5C 103.5,90.5 103.5,91.5 103.5,92.5C 100.03,94.2139 96.3629,95.5473 92.5,96.5C 91.1667,97.8333 89.8333,99.1667 88.5,100.5C 89.6888,101.429 91.0222,101.762 92.5,101.5C 92.9167,104.079 92.25,106.246 90.5,108C 92.3361,112.001 95.3361,114.834 99.5,116.5C 100.429,117.689 100.762,119.022 100.5,120.5C 102.96,120.699 105.293,121.365 107.5,122.5C 108.5,124.833 110.167,126.5 112.5,127.5C 113.309,129.071 113.643,130.738 113.5,132.5C 110.692,132.693 108.025,133.36 105.5,134.5C 105.52,136.143 104.853,137.476 103.5,138.5C 96.619,139.036 95.619,141.702 100.5,146.5C 99.9747,147.192 99.3081,147.692 98.5,148C 100.107,149.049 100.773,150.549 100.5,152.5C 97.3388,153.747 94.1721,153.747 91,152.5C 84.9092,153.925 78.9092,155.591 73,157.5C 70.8436,157.245 68.8436,156.578 67,155.5C 64.9216,157.428 62.7549,159.095 60.5,160.5C 57.5083,160.191 56.175,158.524 56.5,155.5C 54.8014,155.62 53.1347,155.954 51.5,156.5C 48.7118,154.717 45.7118,153.384 42.5,152.5C 35.7215,153.937 28.8882,154.937 22,155.5C 17.9591,153.884 17.7924,152.551 21.5,151.5C 21.3843,145.304 22.3843,139.304 24.5,133.5C 25.7396,130.588 27.4063,127.921 29.5,125.5C 22.863,124.261 16.5296,122.261 10.5,119.5C 8.49,116.672 6.82333,113.672 5.5,110.5 Z M 43.5,5.5 C 46.9863,6.95252 50.653,7.61919 54.5,7.5C 53.9084,10.1272 53.5751,12.7938 53.5,15.5C 55.2769,15.7863 56.9436,16.4529 58.5,17.5C 59.6473,17.1822 60.4806,16.5156 61,15.5C 62.4396,17.0456 64.2729,17.879 66.5,18C 63.9817,19.8798 63.315,22.2132 64.5,25C 67.4372,25.1001 70.1039,25.9334 72.5,27.5C 73.8415,25.9951 75.5082,25.3285 77.5,25.5C 77.5,23.8333 77.5,22.1667 77.5,20.5C 79.5273,20.6621 81.5273,20.4955 83.5,20C 85.4935,18.0014 87.8268,16.5014 90.5,15.5C 92.019,16.8513 93.3523,18.3513 94.5,20C 96.1341,20.4935 97.8008,20.6602 99.5,20.5C 99.4466,24.7942 101.447,27.7942 105.5,29.5C 107.003,31.5858 108.336,33.7525 109.5,36C 107.532,38.2858 105.865,40.7858 104.5,43.5C 105.956,46.6293 108.289,48.6293 111.5,49.5C 111.787,53.5259 112.787,57.3592 114.5,61C 113.643,64.7602 113.643,68.5935 114.5,72.5C 115.833,72.5 117.167,72.5 118.5,72.5C 118.665,75.5184 118.498,78.5184 118,81.5C 115.638,79.2124 112.805,78.2124 109.5,78.5C 109.5,80.1667 109.5,81.8333 109.5,83.5C 106.573,84.6019 103.573,85.6019 100.5,86.5C 99.5853,87.3279 98.9186,88.3279 98.5,89.5C 95.5456,90.6247 92.5456,91.6247 89.5,92.5C 87.5822,95.1059 84.9156,96.1059 81.5,95.5C 84.4663,101.55 86.9663,107.883 89,114.5C 91.1602,116.163 93.3268,117.83 95.5,119.5C 96.3857,120.325 96.719,121.325 96.5,122.5C 99.1261,123.762 101.793,125.096 104.5,126.5C 105.853,127.524 106.52,128.857 106.5,130.5C 104.833,130.5 103.167,130.5 101.5,130.5C 101.5,132.167 101.5,133.833 101.5,135.5C 99.0401,135.699 96.7067,136.365 94.5,137.5C 93.4893,141.134 93.4893,144.801 94.5,148.5C 91.0678,148.243 87.7345,147.576 84.5,146.5C 84.5,147.833 84.5,149.167 84.5,150.5C 80.0403,149.885 76.0403,150.885 72.5,153.5C 69.0706,151.614 65.404,150.614 61.5,150.5C 61.6602,152.199 61.4935,153.866 61,155.5C 58.6581,151.391 55.3248,150.057 51,151.5C 48.6953,148.39 46.1953,148.057 43.5,150.5C 42.5713,149.311 42.238,147.978 42.5,146.5C 36.8333,147.833 31.1667,149.167 25.5,150.5C 24.8898,146.365 25.7232,142.699 28,139.5C 27.843,135.173 29.5097,131.84 33,129.5C 34.1396,126.898 34.9729,124.231 35.5,121.5C 33.1432,121.663 30.8098,121.497 28.5,121C 23.6856,118.839 18.6856,117.339 13.5,116.5C 12.5028,112.848 12.3361,109.182 13,105.5C 11.951,103.893 10.451,103.227 8.5,103.5C 9.33903,100.313 10.6724,97.3128 12.5,94.5C 10.8128,91.304 9.47947,87.9707 8.5,84.5C 9.38161,81.2105 10.0483,77.8772 10.5,74.5C 10.4101,72.0363 9.74346,69.8697 8.5,68C 11.9752,67.5532 15.3085,66.7199 18.5,65.5C 18.0769,62.7118 19.0769,60.7118 21.5,59.5C 22.48,56.9135 22.8134,54.2469 22.5,51.5C 17.1667,51.1667 17.1667,50.8333 22.5,50.5C 23.7996,44.7459 25.4663,39.0792 27.5,33.5C 26.1667,33.5 24.8333,33.5 23.5,33.5C 23.5,32.5 23.5,31.5 23.5,30.5C 28.9892,29.4304 32.6558,31.4304 34.5,36.5C 36.396,37.4656 38.396,37.7989 40.5,37.5C 40.5,34.1667 40.5,30.8333 40.5,27.5C 43.1667,27.5 45.8333,27.5 48.5,27.5C 48.5229,30.4571 49.5229,32.9571 51.5,35C 56.9798,35.8477 58.3131,34.0144 55.5,29.5C 54.675,28.6143 53.675,28.281 52.5,28.5C 51.7724,24.8149 49.4391,22.9816 45.5,23C 46.7435,21.1303 47.4101,18.9637 47.5,16.5C 47.1667,14.5 46.8333,12.5 46.5,10.5C 44.679,9.2723 43.679,7.60563 43.5,5.5 Z"/></g>
<g><path style="opacity:0.125" fill="#000000" d="M 3.5,55.5 C 4.37331,53.1137 5.87331,51.1137 8,49.5C 8.63809,53.0357 7.13809,55.0357 3.5,55.5 Z"/></g>
<g><path style="opacity:0.026" fill="#000000" d="M 3.5,55.5 C 3.48269,57.0281 2.81602,57.5281 1.5,57C 2.0442,56.2828 2.71087,55.7828 3.5,55.5 Z"/></g>
<g><path style="opacity:0.037" fill="#000000" d="M 5.5,110.5 C 4.47498,110.103 4.30831,109.437 5,108.5C 5.46434,109.094 5.63101,109.761 5.5,110.5 Z"/></g>
<g><path style="opacity:0.069" fill="#000000" d="M 84.5,161.5 C 85.8333,160.167 87.1667,160.167 88.5,161.5C 87.1667,161.5 85.8333,161.5 84.5,161.5 Z"/></g>
</svg>
