<?xml version="1.0" encoding="UTF-8"?>
<!DOCTYPE svg PUBLIC "-//W3C//DTD SVG 1.1//EN" "http://www.w3.org/Graphics/SVG/1.1/DTD/svg11.dtd">
<svg xmlns="http://www.w3.org/2000/svg" version="1.1" width="189px" height="175px" style="shape-rendering:geometricPrecision; text-rendering:geometricPrecision; image-rendering:optimizeQuality; fill-rule:evenodd; clip-rule:evenodd" xmlns:xlink="http://www.w3.org/1999/xlink">
<g><path style="opacity:0.609" fill="#000000" d="M 188.5,59.5 C 188.5,60.8333 188.5,62.1667 188.5,63.5C 187.849,64.0906 187.182,64.7573 186.5,65.5C 186.211,73.4811 182.045,77.8145 174,78.5C 171.527,79.6453 169.36,81.1453 167.5,83C 160.744,84.3167 154.077,85.8167 147.5,87.5C 147.5,89.5 147.5,91.5 147.5,93.5C 145.712,93.2148 144.045,93.5481 142.5,94.5C 137.155,100.51 131.822,106.51 126.5,112.5C 125.334,118.17 127.001,122.836 131.5,126.5C 132.466,128.396 132.799,130.396 132.5,132.5C 128.309,132.032 124.976,133.365 122.5,136.5C 121.311,137.429 119.978,137.762 118.5,137.5C 118.457,141.732 116.457,144.566 112.5,146C 116.43,149.492 115.597,151.659 110,152.5C 101.063,149.744 95.3963,153.077 93,162.5C 89.2686,166.465 85.6019,166.465 82,162.5C 72.5127,163.705 63.3461,162.372 54.5,158.5C 52.0261,158.613 50.0261,159.613 48.5,161.5C 44.8776,162.325 41.211,162.825 37.5,163C 36.1414,164.204 35.1414,165.704 34.5,167.5C 31.5663,169.917 28.3996,170.584 25,169.5C 23.3333,170.167 21.6667,170.833 20,171.5C 19.5172,170.552 19.3505,169.552 19.5,168.5C 21.8568,168.663 24.1902,168.497 26.5,168C 24.968,167.3 23.968,166.134 23.5,164.5C 22.3112,163.571 20.9778,163.238 19.5,163.5C 18.5309,157.438 17.1976,151.438 15.5,145.5C 12.0361,140.804 7.36941,138.304 1.5,138C 0.663368,136.989 0.330034,135.822 0.5,134.5C 1.5,134.5 2.5,134.5 3.5,134.5C 2.59306,127.4 5.25972,122.067 11.5,118.5C 6.60379,111.352 8.27045,106.185 16.5,103C 15.3333,102.5 14.5,101.667 14,100.5C 13.744,96.0533 12.9106,91.7199 11.5,87.5C 11.8333,86.5 12.1667,85.5 12.5,84.5C 15.2123,86.2603 18.2123,86.927 21.5,86.5C 21.5,83.1667 21.5,79.8333 21.5,76.5C 22.5,76.5 23.5,76.5 24.5,76.5C 26.1353,71.6786 26.802,66.6786 26.5,61.5C 30.4542,59.5229 34.4542,57.5229 38.5,55.5C 38.7093,54.914 39.0426,54.414 39.5,54C 37.8659,53.5065 36.1992,53.3398 34.5,53.5C 34.5,51.5 34.5,49.5 34.5,47.5C 32.2341,47.8588 30.4007,47.1922 29,45.5C 27.9914,46.6582 26.6581,47.3248 25,47.5C 22.1562,46.8255 19.6562,45.4922 17.5,43.5C 16.3279,43.9186 15.3279,44.5853 14.5,45.5C 13.1585,43.9951 11.4918,43.3285 9.5,43.5C 9.22672,41.549 9.89339,40.049 11.5,39C 9.08531,39.0551 6.75197,39.3884 4.5,40C 3.30388,38.636 2.30388,37.136 1.5,35.5C 3.00068,31.9972 3.83401,28.3305 4,24.5C 4.75044,23.8742 5.58377,23.3742 6.5,23C 3.96925,22.5522 1.63592,21.7189 -0.5,20.5C -0.5,18.1667 -0.5,15.8333 -0.5,13.5C 1.07826,12.9344 2.41159,11.9344 3.5,10.5C 10.2387,10.2582 16.2387,8.09152 21.5,4C 25.6537,4.13276 29.6537,4.29943 33.5,4.5C 33.8844,6.92937 34.551,9.26271 35.5,11.5C 42.832,12.2213 50.1654,13.0546 57.5,14C 63.9252,17.4585 70.5919,20.6252 77.5,23.5C 83.5939,20.4468 88.9273,21.4468 93.5,26.5C 95.5225,24.8267 97.8559,24.1601 100.5,24.5C 100.5,25.8333 100.5,27.1667 100.5,28.5C 105.822,29.0293 111.156,29.5293 116.5,30C 118.442,31.9086 120.109,34.0753 121.5,36.5C 123.612,38.2055 125.945,39.5389 128.5,40.5C 129.727,41.5904 130.56,42.9238 131,44.5C 132.388,43.4464 133.888,43.2797 135.5,44C 138.875,46.2499 142.542,47.7499 146.5,48.5C 146.5,47.1667 146.5,45.8333 146.5,44.5C 148.604,44.2011 150.604,44.5344 152.5,45.5C 152.968,47.1338 153.968,48.3005 155.5,49C 158.779,50.1486 162.113,50.9819 165.5,51.5C 166.31,53.7983 167.144,56.1316 168,58.5C 168.674,57.4216 169.674,56.7549 171,56.5C 172.667,57.1667 174.333,57.8333 176,58.5C 180.047,56.7339 184.214,57.0673 188.5,59.5 Z M 28.5,7.5 C 31.1577,9.46876 32.8244,12.1354 33.5,15.5C 41.3355,15.2336 49.0021,16.2336 56.5,18.5C 63.3987,22.2605 70.732,25.2605 78.5,27.5C 82.9386,24.2302 86.6053,24.8968 89.5,29.5C 97.3355,31.9338 105.336,33.6005 113.5,34.5C 114.376,35.2508 115.376,35.7508 116.5,36C 114.893,37.049 114.227,38.549 114.5,40.5C 118.143,41.4906 121.809,42.4906 125.5,43.5C 126.429,44.6888 126.762,46.0222 126.5,47.5C 128.752,48.3331 130.919,48.3331 133,47.5C 135.378,49.7962 138.211,51.4629 141.5,52.5C 142.647,52.1822 143.481,51.5156 144,50.5C 146.333,53.1667 148.667,53.1667 151,50.5C 152.401,52.1922 154.234,52.8588 156.5,52.5C 156.5,54.5 156.5,56.5 156.5,58.5C 159.167,58.5 161.833,58.5 164.5,58.5C 164.5,59.8333 164.5,61.1667 164.5,62.5C 166.57,62.5514 168.403,61.8847 170,60.5C 172.313,62.9311 175.146,63.9311 178.5,63.5C 178.5,62.5 178.5,61.5 178.5,60.5C 180.433,60.7286 182.1,61.5619 183.5,63C 181.679,65.456 181.012,68.2893 181.5,71.5C 177.648,73.1332 173.648,74.4665 169.5,75.5C 167.085,77.5848 164.418,79.2514 161.5,80.5C 155.692,81.0975 150.025,82.2642 144.5,84C 139.064,92.9318 132.397,100.765 124.5,107.5C 120.773,113.355 120.606,119.355 124,125.5C 124.5,126.667 125.333,127.5 126.5,128C 121.768,129.413 118.435,132.247 116.5,136.5C 115.5,136.5 114.5,136.5 113.5,136.5C 113.5,138.167 113.5,139.833 113.5,141.5C 112.167,141.5 110.833,141.5 109.5,141.5C 109.808,143.924 109.474,146.257 108.5,148.5C 107.672,147.585 106.672,146.919 105.5,146.5C 101.918,148.082 98.2512,149.416 94.5,150.5C 91.9367,153.929 89.77,157.595 88,161.5C 84.9243,158.342 81.2576,157.675 77,159.5C 68.9116,158.312 60.9116,156.645 53,154.5C 50.3577,154.561 48.191,155.561 46.5,157.5C 42.5408,158.327 38.5408,158.827 34.5,159C 33,161.167 31.1667,163 29,164.5C 27.1667,162 25,159.833 22.5,158C 24.0181,155.075 23.3514,152.742 20.5,151C 21.5,150.667 22.5,150.333 23.5,150C 22.144,145.818 19.8107,142.318 16.5,139.5C 12.6959,137.764 9.02927,135.764 5.5,133.5C 7.28197,130.101 8.94864,126.767 10.5,123.5C 14.2708,124.226 16.9374,122.893 18.5,119.5C 17.6249,117.227 15.9582,116.227 13.5,116.5C 13.1866,113.753 13.52,111.086 14.5,108.5C 20.4279,106.549 21.5946,103.216 18,98.5C 17.5026,95.854 17.3359,93.1873 17.5,90.5C 20.1441,90.8399 22.4775,90.1733 24.5,88.5C 27.2044,81.0067 29.5378,73.34 31.5,65.5C 34.9075,62.3079 38.5741,59.4745 42.5,57C 43.6642,53.8044 42.6642,51.3044 39.5,49.5C 38.5344,47.604 38.2011,45.604 38.5,43.5C 34.9752,43.7854 31.6418,43.1187 28.5,41.5C 27.2588,42.0372 26.0921,42.7039 25,43.5C 22.9434,42.277 20.7767,41.277 18.5,40.5C 16.6248,35.5817 12.9582,33.4151 7.5,34C 8.44802,33.5172 9.44802,33.3505 10.5,33.5C 10.5,28.5 10.5,23.5 10.5,18.5C 8.16667,18.5 5.83333,18.5 3.5,18.5C 3.5,17.5 3.5,16.5 3.5,15.5C 12.2265,13.6135 20.5598,10.9468 28.5,7.5 Z"/></g>
<g><path style="opacity:0.024" fill="#000000" d="M 6.5,41.5 C 7.83333,42.1667 7.83333,42.1667 6.5,41.5 Z"/></g>
<g><path style="opacity:0.008" fill="#000000" d="M 142.5,174.5 C 141.833,173.167 141.833,173.167 142.5,174.5 Z"/></g>
</svg>
