<?xml version="1.0" encoding="UTF-8"?>
<!DOCTYPE svg PUBLIC "-//W3C//DTD SVG 1.1//EN" "http://www.w3.org/Graphics/SVG/1.1/DTD/svg11.dtd">
<svg xmlns="http://www.w3.org/2000/svg" version="1.1" width="183px" height="181px" style="shape-rendering:geometricPrecision; text-rendering:geometricPrecision; image-rendering:optimizeQuality; fill-rule:evenodd; clip-rule:evenodd" xmlns:xlink="http://www.w3.org/1999/xlink">
<g><path style="opacity:0.01" fill="#000000" d="M 110.5,-0.5 C 111.5,-0.5 112.5,-0.5 113.5,-0.5C 112.5,0.833333 111.5,0.833333 110.5,-0.5 Z"/></g>
<g><path style="opacity:0.603" fill="#000000" d="M 146.5,36.5 C 150.135,37.1143 153.802,37.4476 157.5,37.5C 157.833,39.5 158.167,41.5 158.5,43.5C 163.686,44.3389 168.686,45.8389 173.5,48C 175.81,48.4966 178.143,48.6633 180.5,48.5C 179.818,52.9465 177.818,56.6132 174.5,59.5C 173.686,61.7662 173.186,64.0995 173,66.5C 172.586,66.9574 172.086,67.2907 171.5,67.5C 170.706,71.7848 170.373,75.9514 170.5,80C 167.585,83.4684 163.919,85.9684 159.5,87.5C 159.295,91.3748 157.295,93.0415 153.5,92.5C 153.5,94.1667 153.5,95.8333 153.5,97.5C 151.567,97.7286 149.9,98.5619 148.5,100C 151.817,100.498 155.15,100.665 158.5,100.5C 158.041,104.74 159.374,108.24 162.5,111C 161.663,112.011 161.33,113.178 161.5,114.5C 160.448,114.351 159.448,114.517 158.5,115C 160.192,116.401 160.859,118.234 160.5,120.5C 161.5,120.5 162.5,120.5 163.5,120.5C 164.561,125.605 162.561,128.772 157.5,130C 160.984,133.539 161.318,137.372 158.5,141.5C 159.79,143.792 161.457,145.792 163.5,147.5C 166.589,144.857 168.922,145.524 170.5,149.5C 169.257,151.691 168.424,154.024 168,156.5C 164.512,158.743 161.012,161.077 157.5,163.5C 155.31,165.007 153.976,167.007 153.5,169.5C 149.884,170.27 146.217,170.936 142.5,171.5C 138.655,171.673 135.488,170.34 133,167.5C 128.709,165.545 124.209,164.211 119.5,163.5C 117.339,162.222 115.173,160.889 113,159.5C 110.486,163.168 106.986,164.835 102.5,164.5C 101.171,168.487 99.8375,172.487 98.5,176.5C 92.2852,178.896 85.9519,179.063 79.5,177C 77.5448,176.047 75.8782,174.713 74.5,173C 71.3911,172.304 68.5578,171.138 66,169.5C 63.6667,172.167 61.3333,172.167 59,169.5C 58.4806,170.516 57.6473,171.182 56.5,171.5C 53.2114,170.463 50.378,168.796 48,166.5C 45.9189,167.333 43.7522,167.333 41.5,166.5C 41.762,165.022 41.4287,163.689 40.5,162.5C 36.8095,161.491 33.1428,160.491 29.5,159.5C 29.2267,157.549 29.8934,156.049 31.5,155C 30.552,154.517 29.552,154.351 28.5,154.5C 28.3379,152.473 28.5045,150.473 29,148.5C 31.1197,146.437 32.6197,143.937 33.5,141C 37.6047,125.654 40.9381,110.154 43.5,94.5C 40.6574,94.0577 37.9907,93.0577 35.5,91.5C 34.5502,87.5347 33.2169,83.7014 31.5,80C 31.7549,78.6739 32.4216,77.6739 33.5,77C 29.3671,75.08 28.0338,72.08 29.5,68C 27.8659,67.5065 26.1992,67.3398 24.5,67.5C 24.5,66.5 24.5,65.5 24.5,64.5C 23.5,64.5 22.5,64.5 21.5,64.5C 21.8808,62.0582 21.2141,61.3915 19.5,62.5C 15.0082,59.3032 10.0082,57.6365 4.5,57.5C 4.5,55.8333 4.5,54.1667 4.5,52.5C 3.5,52.5 2.5,52.5 1.5,52.5C 1.5,50.8333 1.5,49.1667 1.5,47.5C 5.5,47.1667 5.5,46.8333 1.5,46.5C 1.18665,43.7531 1.51998,41.0865 2.5,38.5C 6.94845,38.0102 11.2818,37.0102 15.5,35.5C 16.6721,35.9186 17.6721,36.5853 18.5,37.5C 21.6138,35.3677 24.9472,35.0344 28.5,36.5C 30.0235,38.6184 31.6901,40.6184 33.5,42.5C 34.3279,41.5853 35.3279,40.9186 36.5,40.5C 38.9724,41.9917 41.6391,42.6584 44.5,42.5C 44.8551,40.1103 45.5217,37.777 46.5,35.5C 46.3333,34.5 46.1667,33.5 46,32.5C 45.6667,33.8333 45.3333,35.1667 45,36.5C 44.5503,34.481 43.717,32.6477 42.5,31C 43.1667,30.6667 43.8333,30.3333 44.5,30C 43.8619,26.9293 43.8619,23.7626 44.5,20.5C 46.3588,20.4609 47.6921,21.2942 48.5,23C 51.4816,23.498 54.4816,23.6646 57.5,23.5C 57.7733,25.451 57.1066,26.951 55.5,28C 59.4453,30.3447 63.612,32.178 68,33.5C 69.0173,31.6241 69.8506,29.6241 70.5,27.5C 71.7187,26.3539 73.0521,25.3539 74.5,24.5C 80.4698,24.0442 86.1365,22.5442 91.5,20C 90.4844,19.4806 89.8178,18.6473 89.5,17.5C 90.7123,13.0813 92.0457,8.74792 93.5,4.5C 98.028,2.71912 102.695,2.21912 107.5,3C 108.406,4.69946 108.739,6.5328 108.5,8.5C 114.418,7.34416 117.418,9.67749 117.5,15.5C 119.167,15.5 120.833,15.5 122.5,15.5C 122.5,16.5 122.5,17.5 122.5,18.5C 124.288,18.2148 125.955,18.5481 127.5,19.5C 128.393,22.0841 128.726,24.7508 128.5,27.5C 130.143,27.5198 131.476,26.8532 132.5,25.5C 133.795,26.0983 135.128,26.5983 136.5,27C 136.167,27.3333 135.833,27.6667 135.5,28C 138.012,31.0105 140.678,33.8439 143.5,36.5C 144.614,37.7759 145.614,37.7759 146.5,36.5 Z M 98.5,6.5 C 100.5,6.5 102.5,6.5 104.5,6.5C 105.305,10.0396 107.305,12.7062 110.5,14.5C 111.647,14.1822 112.481,13.5156 113,12.5C 113.494,14.1341 113.66,15.8008 113.5,17.5C 115.167,17.5 116.833,17.5 118.5,17.5C 118.5,19.1667 118.5,20.8333 118.5,22.5C 120.167,22.5 121.833,22.5 123.5,22.5C 122.19,30.367 125.524,33.367 133.5,31.5C 133.5,32.5 133.5,33.5 133.5,34.5C 137.512,35.1602 139.512,37.4935 139.5,41.5C 144.671,42.0769 149.671,42.4103 154.5,42.5C 154.33,45.4905 155.663,47.4905 158.5,48.5C 163.833,49.8333 169.167,51.1667 174.5,52.5C 172.406,54.9213 170.74,57.588 169.5,60.5C 167.384,66.3037 166.384,72.3037 166.5,78.5C 163.833,78.5 161.167,78.5 158.5,78.5C 157.87,81.5817 156.87,84.5817 155.5,87.5C 151.189,88.4734 149.189,91.14 149.5,95.5C 145.313,96.5113 143.813,99.1779 145,103.5C 149.389,108.283 152.223,107.95 153.5,102.5C 154.158,105.473 155.158,108.306 156.5,111C 155.612,112.22 154.945,113.553 154.5,115C 156.278,118.379 157.611,121.879 158.5,125.5C 156.167,125.5 153.833,125.5 151.5,125.5C 151.5,127.833 151.5,130.167 151.5,132.5C 153.818,132.657 155.484,133.824 156.5,136C 154.427,139.33 154.094,142.83 155.5,146.5C 158.354,148.569 161.354,150.402 164.5,152C 163.809,153.067 163.309,154.234 163,155.5C 162.481,154.484 161.647,153.818 160.5,153.5C 157.977,154.943 155.977,156.943 154.5,159.5C 153.675,160.386 152.675,160.719 151.5,160.5C 150.289,164.323 147.622,166.656 143.5,167.5C 140.79,166.616 138.124,165.616 135.5,164.5C 134.147,163.476 133.48,162.143 133.5,160.5C 130.956,160.896 128.789,160.229 127,158.5C 125.913,160.932 125.413,160.598 125.5,157.5C 123.599,157.433 121.766,157.767 120,158.5C 117.5,157.5 115,156.5 112.5,155.5C 107.949,158.799 102.949,161.465 97.5,163.5C 96.2612,165.007 96.5946,166.174 98.5,167C 94.4311,168.278 93.7644,170.444 96.5,173.5C 95.5637,174.974 94.2303,175.974 92.5,176.5C 86.4288,176.489 80.9288,174.822 76,171.5C 75.5172,170.552 75.3505,169.552 75.5,168.5C 71.7292,169.226 69.0626,167.893 67.5,164.5C 65.604,163.534 63.604,163.201 61.5,163.5C 61.5,164.833 61.5,166.167 61.5,167.5C 57.5418,166.75 53.8751,165.25 50.5,163C 48.8876,162.28 47.3876,162.446 46,163.5C 44.3817,159.75 41.5484,157.417 37.5,156.5C 36.0198,154.78 34.6865,152.947 33.5,151C 35.5077,148.658 36.8411,145.991 37.5,143C 40.4545,133.021 42.6212,122.855 44,112.5C 45.3161,113.974 46.3161,115.641 47,117.5C 47.1667,116.833 47.3333,116.167 47.5,115.5C 48.1432,107.347 48.1432,99.014 47.5,90.5C 44.5641,89.5942 41.5641,88.9275 38.5,88.5C 39.1243,84.9866 38.1243,82.1533 35.5,80C 37.032,79.3005 38.032,78.1338 38.5,76.5C 34.8796,72.9066 33.213,68.5733 33.5,63.5C 27.0138,59.7559 20.3471,56.2559 13.5,53C 11.8333,52.6667 10.1667,52.3333 8.5,52C 10.0911,49.6137 11.0911,46.947 11.5,44C 11.0426,43.586 10.7093,43.086 10.5,42.5C 14.4112,42.3076 18.4112,42.141 22.5,42C 23.1258,41.2496 23.6258,40.4162 24,39.5C 25.049,41.1066 26.549,41.7733 28.5,41.5C 28.8333,43.5 29.1667,45.5 29.5,47.5C 31.4008,47.5668 33.2341,47.2335 35,46.5C 36.9988,47.4978 38.9988,48.4978 41,49.5C 44.6742,47.9056 48.5075,47.239 52.5,47.5C 52.7589,44.5203 51.4256,42.687 48.5,42C 49.7042,40.6472 50.3708,38.9806 50.5,37C 50.0567,33.7879 49.0567,30.7879 47.5,28C 48.7932,27.51 50.1266,27.3433 51.5,27.5C 51.8844,29.9294 52.551,32.2627 53.5,34.5C 59.195,35.4895 64.8617,36.3228 70.5,37C 72.5313,36.3678 74.198,35.2012 75.5,33.5C 74.1468,32.4763 73.4802,31.143 73.5,29.5C 81.1692,28.168 88.5026,25.8347 95.5,22.5C 95.9577,19.6062 95.291,17.1062 93.5,15C 95.291,12.8938 95.9577,10.3938 95.5,7.5C 96.791,7.73731 97.791,7.40397 98.5,6.5 Z"/></g>
<g><path style="opacity:0.025" fill="#000000" d="M 84.5,3.5 C 86.0481,3.82124 86.7148,4.82124 86.5,6.5C 84.8008,6.66018 83.1341,6.49351 81.5,6C 82.9423,5.62325 83.9423,4.78991 84.5,3.5 Z"/></g>
<g><path style="opacity:0.101" fill="#000000" d="M 3.5,8.5 C 8.46346,10.3938 8.46346,11.3938 3.5,11.5C 3.5,10.5 3.5,9.5 3.5,8.5 Z"/></g>
<g><path style="opacity:0.057" fill="#000000" d="M 146.5,26.5 C 147.788,28.0348 147.788,29.7015 146.5,31.5C 143.839,29.8277 143.839,28.1611 146.5,26.5 Z"/></g>
<g><path style="opacity:0.004" fill="#000000" d="M 33.5,28.5 C 34.8333,29.1667 34.8333,29.1667 33.5,28.5 Z"/></g>
<g><path style="opacity:0.004" fill="#000000" d="M 34.5,30.5 C 35.8333,31.1667 35.8333,31.1667 34.5,30.5 Z"/></g>
<g><path style="opacity:0.02" fill="#000000" d="M 36.5,32.5 C 37.525,32.8966 37.6917,33.5632 37,34.5C 36.5357,33.9056 36.369,33.2389 36.5,32.5 Z"/></g>
<g><path style="opacity:0.014" fill="#000000" d="M 157.5,33.5 C 158.573,34.2506 158.74,35.2506 158,36.5C 157.517,35.552 157.351,34.552 157.5,33.5 Z"/></g>
<g><path style="opacity:0.007" fill="#000000" d="M 146.5,36.5 C 144.972,36.4827 144.472,35.816 145,34.5C 145.717,35.0442 146.217,35.7109 146.5,36.5 Z"/></g>
<g><path style="opacity:0.012" fill="#000000" d="M 164.5,111.5 C 164.897,110.475 165.563,110.308 166.5,111C 165.906,111.464 165.239,111.631 164.5,111.5 Z"/></g>
<g><path style="opacity:0.004" fill="#000000" d="M 173.5,149.5 C 174.525,149.897 174.692,150.563 174,151.5C 173.536,150.906 173.369,150.239 173.5,149.5 Z"/></g>
</svg>
