<?xml version="1.0" encoding="UTF-8"?>
<!DOCTYPE svg PUBLIC "-//W3C//DTD SVG 1.1//EN" "http://www.w3.org/Graphics/SVG/1.1/DTD/svg11.dtd">
<svg xmlns="http://www.w3.org/2000/svg" version="1.1" width="189px" height="214px" style="shape-rendering:geometricPrecision; text-rendering:geometricPrecision; image-rendering:optimizeQuality; fill-rule:evenodd; clip-rule:evenodd" xmlns:xlink="http://www.w3.org/1999/xlink">
<g><path style="opacity:0.591" fill="#000000" d="M 77.5,-0.5 C 77.8333,-0.5 78.1667,-0.5 78.5,-0.5C 79.209,0.403972 80.209,0.737305 81.5,0.5C 81.238,1.97782 81.5713,3.31116 82.5,4.5C 84.4911,5.82036 86.4911,7.15369 88.5,8.5C 93.048,9.19239 97.548,9.85906 102,10.5C 102.576,12.3774 102.409,14.2108 101.5,16C 103.043,19.3376 104.043,22.8376 104.5,26.5C 101.994,28.5064 99.8274,30.8397 98,33.5C 96.3301,28.4083 95.4968,28.4083 95.5,33.5C 91.2723,33.8963 87.2723,35.0629 83.5,37C 85.5396,39.5739 87.2062,42.4073 88.5,45.5C 85.7235,48.9723 84.8902,52.9723 86,57.5C 92.0836,62.7876 98.5836,67.4543 105.5,71.5C 108.288,77.387 110.788,83.387 113,89.5C 115.39,93.0546 118.557,95.7213 122.5,97.5C 123.386,98.325 123.719,99.325 123.5,100.5C 126.021,100.44 128.354,101.106 130.5,102.5C 135.331,100.732 140.331,100.065 145.5,100.5C 145.813,103.247 145.48,105.914 144.5,108.5C 143.5,109 142.5,109.5 141.5,110C 144.094,110.63 146.427,111.797 148.5,113.5C 152.898,114.257 157.232,115.257 161.5,116.5C 162.5,117.5 163.5,118.5 164.5,119.5C 168.241,120.596 171.907,121.929 175.5,123.5C 176.246,124.736 176.579,126.07 176.5,127.5C 178.929,127.884 181.263,128.551 183.5,129.5C 184.129,131.465 184.796,133.465 185.5,135.5C 184.336,138.067 183.67,140.734 183.5,143.5C 176.787,144.114 173.12,141.114 172.5,134.5C 169.15,134.665 165.817,134.498 162.5,134C 161.874,133.25 161.374,132.416 161,131.5C 159.356,133.064 157.856,134.73 156.5,136.5C 156.287,139.709 155.287,142.542 153.5,145C 157.567,146.446 161.567,147.946 165.5,149.5C 166.294,153.882 166.294,158.215 165.5,162.5C 162.673,163.932 159.673,164.599 156.5,164.5C 156.665,167.85 156.498,171.183 156,174.5C 154.951,176.107 153.451,176.773 151.5,176.5C 151.425,179.206 151.092,181.873 150.5,184.5C 145.855,184.973 141.522,186.473 137.5,189C 135.984,190.897 135.317,193.064 135.5,195.5C 136.5,195.5 137.5,195.5 138.5,195.5C 138.096,200.964 137.096,206.297 135.5,211.5C 131.276,210.285 126.943,209.451 122.5,209C 119.47,204.392 115.136,202.225 109.5,202.5C 105.34,200.407 101.34,198.074 97.5,195.5C 94.9135,194.52 92.2469,194.187 89.5,194.5C 88.632,192.103 87.9653,189.603 87.5,187C 87.9109,181.424 90.9109,178.924 96.5,179.5C 96.3505,180.552 96.5172,181.552 97,182.5C 97.7257,179.607 99.5591,177.941 102.5,177.5C 105.088,178.9 107.588,180.567 110,182.5C 113.974,180.883 118.141,180.05 122.5,180C 128.766,176.796 135.432,174.963 142.5,174.5C 141.841,171.545 141.508,168.545 141.5,165.5C 143.75,165.819 145.75,165.319 147.5,164C 146.552,163.517 145.552,163.351 144.5,163.5C 144.808,161.076 144.474,158.743 143.5,156.5C 140.903,152.927 139.237,148.927 138.5,144.5C 133.596,143.203 128.93,141.537 124.5,139.5C 124.664,136.813 124.497,134.146 124,131.5C 121.894,133.291 119.394,133.958 116.5,133.5C 116.5,132.167 116.5,130.833 116.5,129.5C 114.833,129.5 113.167,129.5 111.5,129.5C 110.841,126.839 109.508,124.506 107.5,122.5C 105.031,121.964 102.864,120.964 101,119.5C 99.1644,121.604 96.9977,121.938 94.5,120.5C 89.0367,116.538 84.0367,112.038 79.5,107C 78.0997,105.562 76.433,104.729 74.5,104.5C 73.4181,99.0655 70.0847,97.0655 64.5,98.5C 64.9886,94.513 63.322,92.1797 59.5,91.5C 59.5,90.5 59.5,89.5 59.5,88.5C 54.8339,87.7267 53.8339,85.56 56.5,82C 53.8171,76.5834 51.4838,71.0834 49.5,65.5C 47.2338,64.6858 44.9005,64.1858 42.5,64C 39.2157,59.4441 34.8824,57.9441 29.5,59.5C 28.5713,60.6888 28.238,62.0222 28.5,63.5C 27.5,63.5 26.5,63.5 25.5,63.5C 25.0974,66.4059 23.4307,68.2393 20.5,69C 17.5,69.6667 14.5,69.6667 11.5,69C 10.944,68.6174 10.6107,68.1174 10.5,67.5C 11.2485,66.469 11.9152,65.3024 12.5,64C 4.08686,61.178 1.42019,55.8447 4.5,48C 3.48431,45.8238 1.81764,44.6571 -0.5,44.5C -0.5,42.1667 -0.5,39.8333 -0.5,37.5C 1.83333,37.5 4.16667,37.5 6.5,37.5C 5.61101,33.8787 4.27767,30.3787 2.5,27C 4.11714,21.0104 6.95048,20.1771 11,24.5C 13.5396,22.98 16.373,21.98 19.5,21.5C 20.9529,19.5334 21.9529,17.3668 22.5,15C 24.8078,13.0643 27.4745,12.231 30.5,12.5C 30.5,14.8333 30.5,17.1667 30.5,19.5C 32.604,19.7989 34.604,19.4656 36.5,18.5C 36.9505,15.3696 38.2838,12.7029 40.5,10.5C 42.2012,11.802 43.3678,13.4687 44,15.5C 45.7337,14.7511 47.567,14.2511 49.5,14C 48.572,13.6121 47.9054,12.9454 47.5,12C 48.6819,10.2649 50.3485,9.26487 52.5,9C 50.8333,8.66667 49.1667,8.33333 47.5,8C 51.2633,7.08006 54.7633,5.58006 58,3.5C 59.3333,4.16667 60.6667,4.83333 62,5.5C 67.2022,3.43603 72.3689,1.43603 77.5,-0.5 Z M 68.5,4.5 C 71.5719,4.18259 74.5719,4.51592 77.5,5.5C 78.8532,6.5237 79.5198,7.85703 79.5,9.5C 85.3163,11.5651 91.3163,13.0651 97.5,14C 96.2381,18.0235 96.9048,21.6902 99.5,25C 97.1902,25.4966 94.8568,25.6633 92.5,25.5C 92.5,26.8333 92.5,28.1667 92.5,29.5C 90.8008,29.3398 89.1341,29.5065 87.5,30C 85.3839,31.7555 83.0505,33.2555 80.5,34.5C 78.8313,39.1637 80.1646,42.6637 84.5,45C 83.552,45.4828 82.552,45.6495 81.5,45.5C 81.2232,50.2332 81.5565,54.8999 82.5,59.5C 87.2616,64.3203 92.2616,68.6536 97.5,72.5C 99.0453,73.4519 100.712,73.7852 102.5,73.5C 103.959,83.4207 108.292,91.7541 115.5,98.5C 116.736,99.2458 118.07,99.5792 119.5,99.5C 119.5,100.833 119.5,102.167 119.5,103.5C 126.8,104.227 134.133,104.727 141.5,105C 138.006,106.984 137.006,109.817 138.5,113.5C 144.239,116.795 150.406,118.795 157,119.5C 161.603,123.09 166.769,125.423 172.5,126.5C 172.5,127.5 172.5,128.5 172.5,129.5C 173.978,129.238 175.311,129.571 176.5,130.5C 177.369,132.868 179.035,134.368 181.5,135C 180.033,136.098 179.199,137.598 179,139.5C 176.556,137.002 175.389,134.002 175.5,130.5C 169.843,131.07 164.51,130.07 159.5,127.5C 157.964,128.249 156.631,129.249 155.5,130.5C 152.759,135.197 150.759,140.197 149.5,145.5C 149.833,146.5 150.167,147.5 150.5,148.5C 156.992,149.314 160.992,152.814 162.5,159C 159.247,159.611 156.247,160.778 153.5,162.5C 152.513,165.768 152.18,169.102 152.5,172.5C 151.5,172.5 150.5,172.5 149.5,172.5C 148.078,175.692 146.911,179.025 146,182.5C 144.782,180.981 143.282,179.814 141.5,179C 142.793,178.51 144.127,178.343 145.5,178.5C 146.395,175.262 146.395,172.095 145.5,169C 150.78,168.632 152.78,165.798 151.5,160.5C 150.5,160.5 149.5,160.5 148.5,160.5C 146.521,153.36 144.188,146.36 141.5,139.5C 137.022,139.464 132.689,138.631 128.5,137C 129.516,136.481 130.182,135.647 130.5,134.5C 129.34,131.163 127.173,128.829 124,127.5C 122.674,127.755 121.674,128.422 121,129.5C 120.381,125.026 118.048,123.693 114,125.5C 111.506,116.021 105.84,113.354 97,117.5C 96.5172,116.552 96.3505,115.552 96.5,114.5C 94.712,114.785 93.0453,114.452 91.5,113.5C 91.032,111.866 90.032,110.7 88.5,110C 89.3081,109.692 89.9747,109.192 90.5,108.5C 88.7801,107.066 86.7801,106.233 84.5,106C 81.8919,102.384 78.8919,99.2174 75.5,96.5C 73.9547,95.5481 72.288,95.2148 70.5,95.5C 67.9092,92.0246 65.5759,88.358 63.5,84.5C 62.5,84.5 61.5,84.5 60.5,84.5C 60.7345,79.9891 59.4012,75.9891 56.5,72.5C 56.5049,65.0093 52.8382,60.8426 45.5,60C 40.45,55.1851 34.45,53.5185 27.5,55C 24.5141,57.786 22.1808,60.9526 20.5,64.5C 19.109,65.6446 17.7757,65.6446 16.5,64.5C 19.1425,61.411 18.4758,59.0776 14.5,57.5C 13.3279,57.9186 12.3279,58.5853 11.5,59.5C 9.45654,57.792 7.78987,55.792 6.5,53.5C 9.31759,49.3721 8.98426,45.5388 5.5,42C 10.5607,40.7717 12.5607,37.605 11.5,32.5C 10.5,32.5 9.5,32.5 8.5,32.5C 8.85882,30.2341 8.19216,28.4007 6.5,27C 10.0088,27.0211 13.1755,26.1878 16,24.5C 17.4926,26.5598 19.3259,26.8932 21.5,25.5C 24.4188,24.1432 25.9188,21.8099 26,18.5C 26.4828,19.448 26.6495,20.448 26.5,21.5C 27.675,21.281 28.675,21.6143 29.5,22.5C 31.0163,24.3912 32.3496,26.3912 33.5,28.5C 35.0709,29.3094 36.7376,29.6427 38.5,29.5C 37.0675,22.4405 39.9008,18.7738 47,18.5C 48.7456,20.4567 50.9122,21.4567 53.5,21.5C 53.5,19.1667 53.5,16.8333 53.5,14.5C 55.1667,14.5 56.8333,14.5 58.5,14.5C 58.3379,12.4727 58.5045,10.4727 59,8.5C 61.3806,9.435 63.8806,9.76834 66.5,9.5C 66.8308,7.67761 67.4975,6.01094 68.5,4.5 Z M 101.5,181.5 C 104.092,183.715 107.092,185.381 110.5,186.5C 118.592,184.964 126.592,183.298 134.5,181.5C 131.273,189.225 130.606,197.225 132.5,205.5C 127.102,206.633 123.102,204.8 120.5,200C 117.447,199.821 114.447,199.321 111.5,198.5C 109.608,195.867 106.941,194.534 103.5,194.5C 101.833,194.167 100.833,193.167 100.5,191.5C 98.0023,190.062 95.8356,190.396 94,192.5C 92.3897,190.061 91.5564,187.394 91.5,184.5C 93.2769,184.786 94.9436,185.453 96.5,186.5C 98.0564,185.453 99.7231,184.786 101.5,184.5C 101.5,183.5 101.5,182.5 101.5,181.5 Z"/></g>
<g><path style="opacity:0.006" fill="#000000" d="M 10.5,67.5 C 9.47498,67.1034 9.30831,66.4368 10,65.5C 10.4643,66.0944 10.631,66.7611 10.5,67.5 Z"/></g>
<g><path style="opacity:0.109" fill="#000000" d="M 39.5,82.5 C 40.8333,82.5 42.1667,82.5 43.5,82.5C 43.6567,83.8734 43.49,85.2068 43,86.5C 41.3732,85.4677 40.2066,84.1344 39.5,82.5 Z"/></g>
<g><path style="opacity:0.016" fill="#000000" d="M 66.5,201.5 C 67.0768,200.227 67.7435,200.227 68.5,201.5C 68.0302,202.463 67.3635,202.463 66.5,201.5 Z"/></g>
</svg>
