<?xml version="1.0" encoding="UTF-8"?>
<!DOCTYPE svg PUBLIC "-//W3C//DTD SVG 1.1//EN" "http://www.w3.org/Graphics/SVG/1.1/DTD/svg11.dtd">
<svg xmlns="http://www.w3.org/2000/svg" version="1.1" width="136px" height="118px" style="shape-rendering:geometricPrecision; text-rendering:geometricPrecision; image-rendering:optimizeQuality; fill-rule:evenodd; clip-rule:evenodd" xmlns:xlink="http://www.w3.org/1999/xlink">
<g><path style="opacity:0.597" fill="#000000" d="M 135.5,74.5 C 135.5,76.5 135.5,78.5 135.5,80.5C 133.683,82.0096 131.683,83.3429 129.5,84.5C 126.658,89.9269 123.991,95.4269 121.5,101C 124.266,104.864 124.932,109.03 123.5,113.5C 119.438,113.045 115.105,112.378 110.5,111.5C 109.722,109.055 108.055,107.722 105.5,107.5C 102.551,108.944 99.718,110.611 97,112.5C 94.6403,111.22 92.1403,110.553 89.5,110.5C 89.5792,111.93 89.2458,113.264 88.5,114.5C 85.9135,115.48 83.2469,115.813 80.5,115.5C 80.5,114.5 80.5,113.5 80.5,112.5C 79.5,112.5 78.5,112.5 77.5,112.5C 77.4427,107.318 76.776,107.318 75.5,112.5C 71.6302,113.696 68.2968,112.696 65.5,109.5C 68.1306,107.995 67.7973,107.329 64.5,107.5C 64.5,106.167 64.5,104.833 64.5,103.5C 61.7616,102.763 59.095,102.763 56.5,103.5C 54.1436,102.457 51.8103,101.457 49.5,100.5C 49.5,99.5 49.5,98.5 49.5,97.5C 46.4964,97.3347 44.4964,98.6681 43.5,101.5C 40.9135,102.48 38.2469,102.813 35.5,102.5C 36.1667,98.5 34.5,96.8333 30.5,97.5C 31.1667,93.5 29.5,91.8333 25.5,92.5C 25.5,91.1667 25.5,89.8333 25.5,88.5C 23.5,88.5 21.5,88.5 19.5,88.5C 19.1667,84.5 18.8333,84.5 18.5,88.5C 13.9074,87.8714 10.2407,85.7047 7.5,82C 10.0907,81.5387 12.2573,82.3721 14,84.5C 14.498,81.5184 14.6646,78.5184 14.5,75.5C 13.1667,75.5 11.8333,75.5 10.5,75.5C 9.64252,71.5935 9.64252,67.7602 10.5,64C 8.78685,60.3592 7.78685,56.5259 7.5,52.5C 4.28907,51.6293 1.95573,49.6293 0.5,46.5C 1.86502,43.7858 3.53168,41.2858 5.5,39C 2.1319,34.3953 0.465236,29.2287 0.5,23.5C 2.19919,23.6602 3.86586,23.4935 5.5,23C 11.911,19.668 18.5776,16.8347 25.5,14.5C 25.679,12.3944 26.679,10.7277 28.5,9.5C 34.4236,5.45958 40.7569,2.79292 47.5,1.5C 51.2568,1.89231 54.9235,2.55897 58.5,3.5C 58.8588,5.76595 58.1922,7.59928 56.5,9C 61.1109,9.69145 64.7776,8.19145 67.5,4.5C 71.5483,5.69718 75.715,6.36385 80,6.5C 86.5593,6.08976 93.0593,5.25642 99.5,4C 100.833,3.33333 100.833,2.66667 99.5,2C 101,1.83333 102.5,1.66667 104,1.5C 107.166,2.30515 110.333,2.97181 113.5,3.5C 114.175,7.35663 115.342,11.0233 117,14.5C 119.321,19.1519 121.654,23.8185 124,28.5C 124.667,31.5 124.667,34.5 124,37.5C 121.642,39.0243 119.809,41.0243 118.5,43.5C 120.167,44.1667 121.833,44.8333 123.5,45.5C 124.208,51.6279 125.541,57.6279 127.5,63.5C 131.532,66.4189 134.199,70.0856 135.5,74.5 Z M 48.5,3.5 C 49.5987,6.71867 51.2654,9.71867 53.5,12.5C 57.9885,14.0008 62.3218,13.6675 66.5,11.5C 80.8595,10.1714 95.1929,9.00475 109.5,8C 111.569,14.3037 114.569,20.137 118.5,25.5C 122.027,31.3917 120.86,36.0583 115,39.5C 114.502,42.4816 114.335,45.4816 114.5,48.5C 116.5,48.5 118.5,48.5 120.5,48.5C 119.254,57.3763 121.92,64.7096 128.5,70.5C 129.292,72.4648 129.959,74.4648 130.5,76.5C 131.025,77.1924 131.692,77.6924 132.5,78C 130.22,78.7028 128.22,79.8694 126.5,81.5C 122.009,87.3153 119.009,93.8153 117.5,101C 117.965,103.603 118.632,106.103 119.5,108.5C 117.5,108.5 115.5,108.5 113.5,108.5C 113.5,107.167 113.5,105.833 113.5,104.5C 104.707,104.349 96.04,105.349 87.5,107.5C 86.273,108.59 85.4396,109.924 85,111.5C 84.5172,110.552 84.3505,109.552 84.5,108.5C 82.8333,108.5 81.1667,108.5 79.5,108.5C 79.5,107.167 79.5,105.833 79.5,104.5C 77.8333,104.5 76.1667,104.5 74.5,104.5C 74.5,105.833 74.5,107.167 74.5,108.5C 73.5,108.5 72.5,108.5 71.5,108.5C 71.5,107.167 71.5,105.833 71.5,104.5C 67.8284,104.817 66.1617,103.151 66.5,99.5C 63.1667,99.1667 59.8333,98.8333 56.5,98.5C 56.1892,93.841 53.8559,92.5077 49.5,94.5C 46.8577,91.947 43.8577,91.2803 40.5,92.5C 39.7699,94.0062 39.4366,95.3395 39.5,96.5C 38.646,95.4783 37.646,94.6449 36.5,94C 38.497,92.8469 38.8304,91.3469 37.5,89.5C 32.7475,88.5231 28.0808,87.1898 23.5,85.5C 22.1468,84.4763 21.4802,83.143 21.5,81.5C 20.5,81.5 19.5,81.5 18.5,81.5C 18.5,78.8333 18.5,76.1667 18.5,73.5C 17.1667,73.5 15.8333,73.5 14.5,73.5C 13.7965,70.1109 13.7965,66.7776 14.5,63.5C 13.1703,58.8404 11.837,54.1737 10.5,49.5C 9.26381,48.7542 7.93047,48.4208 6.5,48.5C 7.14951,45.1945 7.81618,41.8612 8.5,38.5C 8.08701,35.7679 7.42035,33.1013 6.5,30.5C 7.06106,28.2746 8.06106,26.2746 9.5,24.5C 15.7833,22.2512 22.1166,20.2512 28.5,18.5C 28.3832,16.5165 29.0499,14.8498 30.5,13.5C 36.3364,9.61524 42.3364,6.28191 48.5,3.5 Z"/></g>
<g><path style="opacity:0.617" fill="#3f47cc" d="M 107.5,71.5 C 112.159,71.0146 113.492,72.848 111.5,77C 106.728,77.8104 105.395,75.9771 107.5,71.5 Z"/></g>
</svg>
