<?xml version="1.0" encoding="UTF-8"?>
<!DOCTYPE svg PUBLIC "-//W3C//DTD SVG 1.1//EN" "http://www.w3.org/Graphics/SVG/1.1/DTD/svg11.dtd">
<svg xmlns="http://www.w3.org/2000/svg" version="1.1" width="72px" height="115px" style="shape-rendering:geometricPrecision; text-rendering:geometricPrecision; image-rendering:optimizeQuality; fill-rule:evenodd; clip-rule:evenodd" xmlns:xlink="http://www.w3.org/1999/xlink">
<g><path style="opacity:0.069" fill="#000000" d="M 33.5,3.5 C 34.1405,1.66803 35.1405,1.33469 36.5,2.5C 35.675,3.38568 34.675,3.71901 33.5,3.5 Z"/></g>
<g><path style="opacity:0.608" fill="#000000" d="M 33.5,3.5 C 36.0277,4.16569 38.6944,4.83236 41.5,5.5C 42.9756,6.8802 43.9756,8.54687 44.5,10.5C 46.7767,11.277 48.9434,12.277 51,13.5C 52.7584,11.2312 54.5917,11.0646 56.5,13C 59.146,13.4974 61.8127,13.6641 64.5,13.5C 64.2011,15.604 64.5344,17.604 65.5,19.5C 68.6642,21.3044 69.6642,23.8044 68.5,27C 64.5741,29.4745 60.9075,32.3079 57.5,35.5C 55.5378,43.34 53.2044,51.0067 50.5,58.5C 48.4775,60.1733 46.1441,60.8399 43.5,60.5C 42.8856,65.0373 43.8856,69.0373 46.5,72.5C 45.8527,75.814 43.8527,77.814 40.5,78.5C 39.52,81.0865 39.1866,83.7531 39.5,86.5C 44.3013,86.7679 45.3013,88.7679 42.5,92.5C 40.5914,93.3482 38.5914,93.6816 36.5,93.5C 34.9486,96.7675 33.282,100.101 31.5,103.5C 33.542,104.503 33.8754,105.837 32.5,107.5C 29.1667,109.167 25.8333,110.833 22.5,112.5C 18.5732,109.991 14.5732,107.658 10.5,105.5C 8.66634,106.754 6.66634,107.421 4.5,107.5C 3.98827,101.703 5.3216,96.3692 8.5,91.5C 9.43004,86.8628 10.0967,82.1962 10.5,77.5C 8.83333,77.5 7.16667,77.5 5.5,77.5C 5.30888,73.9264 4.30888,70.5931 2.5,67.5C 4.48943,63.2051 6.15609,58.8717 7.5,54.5C 10.0241,54.5713 12.0241,53.5713 13.5,51.5C 17.8311,44.6546 21.4978,37.4879 24.5,30C 25.4477,22.8782 25.781,15.7115 25.5,8.5C 26.8734,8.65668 28.2068,8.49001 29.5,8C 28.6919,7.69238 28.0253,7.19238 27.5,6.5C 29.2433,4.96166 31.2433,3.96166 33.5,3.5 Z M 33.5,8.5 C 34.8734,8.34332 36.2068,8.50999 37.5,9C 35.8934,10.049 35.2267,11.549 35.5,13.5C 37.4918,13.3285 39.1585,13.9951 40.5,15.5C 41.3279,14.5853 42.3279,13.9186 43.5,13.5C 45.6562,15.4922 48.1562,16.8255 51,17.5C 52.6581,17.3248 53.9914,16.6582 55,15.5C 56.4007,17.1922 58.2341,17.8588 60.5,17.5C 60.5,19.5 60.5,21.5 60.5,23.5C 62.1992,23.3398 63.8659,23.5065 65.5,24C 65.0426,24.414 64.7093,24.914 64.5,25.5C 60.4542,27.5229 56.4542,29.5229 52.5,31.5C 52.802,36.6786 52.1353,41.6786 50.5,46.5C 49.5,46.5 48.5,46.5 47.5,46.5C 47.5,49.8333 47.5,53.1667 47.5,56.5C 44.2123,56.927 41.2123,56.2603 38.5,54.5C 38.1667,55.5 37.8333,56.5 37.5,57.5C 38.9106,61.7199 39.744,66.0533 40,70.5C 40.5,71.6667 41.3333,72.5 42.5,73C 34.2705,76.1855 32.6038,81.3521 37.5,88.5C 31.2597,92.0669 28.5931,97.4003 29.5,104.5C 27.1103,104.855 24.777,105.522 22.5,106.5C 18.1975,104.624 13.8642,102.957 9.5,101.5C 12.433,94.8424 14.0997,87.8424 14.5,80.5C 15.5,80.5 16.5,80.5 17.5,80.5C 17.3259,78.139 16.9926,75.8056 16.5,73.5C 13.8333,73.5 11.1667,73.5 8.5,73.5C 8.67154,71.5082 8.00488,69.8415 6.5,68.5C 8.17021,66.6586 9.17021,64.492 9.5,62C 16.7508,55.0719 22.0842,46.9053 25.5,37.5C 26.5237,36.1468 27.857,35.4802 29.5,35.5C 29.5,28.8333 29.5,22.1667 29.5,15.5C 30.8333,15.5 32.1667,15.5 33.5,15.5C 33.7733,13.549 33.1066,12.049 31.5,11C 32.756,10.5831 33.4226,9.74975 33.5,8.5 Z"/></g>
</svg>
