<?xml version="1.0" encoding="UTF-8"?>
<!DOCTYPE svg PUBLIC "-//W3C//DTD SVG 1.1//EN" "http://www.w3.org/Graphics/SVG/1.1/DTD/svg11.dtd">
<svg xmlns="http://www.w3.org/2000/svg" version="1.1" width="119px" height="60px" style="shape-rendering:geometricPrecision; text-rendering:geometricPrecision; image-rendering:optimizeQuality; fill-rule:evenodd; clip-rule:evenodd" xmlns:xlink="http://www.w3.org/1999/xlink">
<g><path style="opacity:0.601" fill="#000000" d="M 78.5,59.5 C 77.5,59.5 76.5,59.5 75.5,59.5C 75.6309,58.6236 75.2975,57.9569 74.5,57.5C 70.9614,58.0094 67.4614,58.3428 64,58.5C 58.6817,56.8559 53.1817,56.0225 47.5,56C 46.4911,53.8282 44.8244,52.6615 42.5,52.5C 41.995,48.8406 39.8283,47.1739 36,47.5C 32.1717,47.1739 30.005,48.8406 29.5,52.5C 26.8806,52.7683 24.3806,52.435 22,51.5C 21.6667,53.1667 21.3333,54.8333 21,56.5C 16.879,53.9908 13.0456,51.3242 9.5,48.5C 7.95467,47.5481 6.28801,47.2148 4.5,47.5C 4.21614,44.2234 4.54948,41.0567 5.5,38C 4.83333,37.3333 4.16667,36.6667 3.5,36C 8.51082,31.2046 13.0108,31.7046 17,37.5C 17.4935,35.8659 17.6602,34.1992 17.5,32.5C 21.404,32.6144 25.0706,33.6144 28.5,35.5C 32.0403,32.8847 36.0403,31.8847 40.5,32.5C 40.5,31.1667 40.5,29.8333 40.5,28.5C 43.7345,29.576 47.0678,30.2427 50.5,30.5C 49.4893,26.8006 49.4893,23.1339 50.5,19.5C 52.7067,18.3652 55.0401,17.6985 57.5,17.5C 57.5,15.8333 57.5,14.1667 57.5,12.5C 61.26,11.9211 64.76,10.5878 68,8.5C 68.3076,9.30806 68.8076,9.97473 69.5,10.5C 71.2199,9.04508 73.2199,8.21175 75.5,8C 77.1922,6.59928 77.8588,4.76595 77.5,2.5C 83.8156,1.85636 89.8156,2.85636 95.5,5.5C 98.5582,2.85322 101.558,2.85322 104.5,5.5C 105.192,4.97473 105.692,4.30806 106,3.5C 109.013,6.56945 109.18,9.73612 106.5,13C 108.671,14.1739 109.671,16.0072 109.5,18.5C 112.944,19.045 114.111,21.045 113,24.5C 112.667,23.8333 112.333,23.1667 112,22.5C 111.503,24.8098 111.337,27.1432 111.5,29.5C 109.833,29.5 108.167,29.5 106.5,29.5C 106.5,31.1667 106.5,32.8333 106.5,34.5C 105.448,34.3505 104.448,34.5172 103.5,35C 104.017,39.3423 104.351,43.6756 104.5,48C 102.395,51.401 100.728,51.2343 99.5,47.5C 99.4455,48.5301 99.1122,49.6967 98.5,51C 93.4546,51.5888 88.4546,52.4222 83.5,53.5C 81.38,55.2719 79.7133,57.2719 78.5,59.5 Z M 81.5,6.5 C 89.2502,8.2366 96.9169,9.40326 104.5,10C 103.376,10.8388 102.709,12.0055 102.5,13.5C 104.764,17.1837 106.43,21.1837 107.5,25.5C 105.076,25.1924 102.743,25.5258 100.5,26.5C 99.6906,28.0709 99.3573,29.7376 99.5,31.5C 103.5,31.8333 103.5,32.1667 99.5,32.5C 100.066,35.5826 100.066,38.5826 99.5,41.5C 97.1667,42.5 95.5,44.1667 94.5,46.5C 92.9547,47.4519 91.288,47.7852 89.5,47.5C 89.5,48.5 89.5,49.5 89.5,50.5C 87.5351,49.871 85.5351,49.2043 83.5,48.5C 81.0047,49.3033 79.0047,50.8033 77.5,53C 68.8064,53.2484 60.1397,52.7484 51.5,51.5C 49.4911,50.1537 47.4911,48.8204 45.5,47.5C 44.5481,45.9547 44.2148,44.288 44.5,42.5C 38.9791,44.2061 33.3124,45.5395 27.5,46.5C 26.7579,47.2868 25.9246,47.9535 25,48.5C 21.6283,45.4068 18.1283,45.0734 14.5,47.5C 13.5713,46.3112 13.238,44.9778 13.5,43.5C 11.712,43.7852 10.0453,43.4519 8.5,42.5C 9.30937,40.9291 9.64271,39.2624 9.5,37.5C 10.5,37.5 11.5,37.5 12.5,37.5C 12.175,40.5242 13.5083,42.1909 16.5,42.5C 18.7549,41.0948 20.9216,39.4281 23,37.5C 24.8436,38.5782 26.8436,39.2449 29,39.5C 34.9092,37.5913 40.9092,35.9247 47,34.5C 49.5837,37.0264 52.7504,38.0264 56.5,37.5C 56.9577,34.6062 56.291,32.1062 54.5,30C 55.3081,29.6924 55.9747,29.1924 56.5,28.5C 51.619,23.7023 52.619,21.0356 59.5,20.5C 60.8532,19.4763 61.5198,18.143 61.5,16.5C 67.0299,14.8754 72.6965,14.2088 78.5,14.5C 79.0634,11.6265 80.0634,8.95983 81.5,6.5 Z"/></g>
<g><path style="opacity:0.004" fill="#000000" d="M 95.5,53.5 C 96.8333,54.1667 96.8333,54.1667 95.5,53.5 Z"/></g>
<g><path style="opacity:0.01" fill="#000000" d="M 92.5,56.5 C 92.8966,55.475 93.5632,55.3083 94.5,56C 93.9056,56.4643 93.2389,56.631 92.5,56.5 Z"/></g>
</svg>
