<?xml version="1.0" encoding="UTF-8"?>
<!DOCTYPE svg PUBLIC "-//W3C//DTD SVG 1.1//EN" "http://www.w3.org/Graphics/SVG/1.1/DTD/svg11.dtd">
<svg xmlns="http://www.w3.org/2000/svg" version="1.1" width="78px" height="92px" style="shape-rendering:geometricPrecision; text-rendering:geometricPrecision; image-rendering:optimizeQuality; fill-rule:evenodd; clip-rule:evenodd" xmlns:xlink="http://www.w3.org/1999/xlink">
<g><path style="opacity:0.562" fill="#000000" d="M 66.5,1.5 C 68.7819,4.1216 71.1152,6.78827 73.5,9.5C 71.4047,13.967 70.0713,18.6336 69.5,23.5C 64.1667,23.8333 64.1667,24.1667 69.5,24.5C 69.8134,27.2469 69.48,29.9135 68.5,32.5C 66.0769,33.7118 65.0769,35.7118 65.5,38.5C 62.3085,39.7199 58.9752,40.5532 55.5,41C 56.7435,42.8697 57.4101,45.0363 57.5,47.5C 57.0483,50.8772 56.3816,54.2105 55.5,57.5C 56.4795,60.9707 57.8128,64.304 59.5,67.5C 57.6724,70.3128 56.339,73.3128 55.5,76.5C 58.5242,76.175 60.1909,77.5083 60.5,80.5C 59.8816,84.0909 58.0483,86.7575 55,88.5C 51.7078,88.207 48.2078,87.707 44.5,87C 42.1953,83.8607 39.1953,81.6941 35.5,80.5C 35.5,79.5 35.5,78.5 35.5,77.5C 27.6732,79.3364 24.3398,76.3364 25.5,68.5C 23.8333,68.5 22.1667,68.5 20.5,68.5C 20.5,66.8333 20.5,65.1667 20.5,63.5C 18.8333,63.5 17.1667,63.5 15.5,63.5C 15.6602,61.8008 15.4935,60.1341 15,58.5C 13.8469,60.497 12.3469,60.8304 10.5,59.5C 6.51014,55.9133 5.84348,51.9133 8.5,47.5C 11.4026,45.0473 14.736,43.7139 18.5,43.5C 18.4411,40.9512 19.4411,38.9512 21.5,37.5C 23.0453,36.5481 24.712,36.2148 26.5,36.5C 26.5,34.8333 26.5,33.1667 26.5,31.5C 27.9778,31.762 29.3112,31.4287 30.5,30.5C 31.2162,28.0924 32.5495,26.0924 34.5,24.5C 35.4336,21.733 36.1003,18.8996 36.5,16C 37.3983,11.9936 39.2316,11.1603 42,13.5C 44.6973,10.305 47.8639,7.63829 51.5,5.5C 56.3195,3.78182 61.1529,3.44849 66,4.5C 66.4828,3.55198 66.6495,2.55198 66.5,1.5 Z M 41.5,23.5 C 42.322,21.6115 43.1553,19.6115 44,17.5C 46.8333,16 49,13.8333 50.5,11C 54.4866,8.52522 58.82,7.52522 63.5,8C 65.1667,9.66667 66.8333,11.3333 68.5,13C 66.9551,14.6877 65.9551,16.6877 65.5,19C 64.2068,19.49 62.8734,19.6567 61.5,19.5C 59.2887,24.0772 60.622,27.0772 65.5,28.5C 64.2723,30.321 62.6056,31.321 60.5,31.5C 60.5,33.1667 60.5,34.8333 60.5,36.5C 58.7231,36.2137 57.0564,35.5471 55.5,34.5C 52.83,35.3396 51.4967,37.173 51.5,40C 51.9929,42.0587 52.6596,44.0587 53.5,46C 50.4132,50.9353 48.7465,56.102 48.5,61.5C 49.7357,62.3567 51.069,63.0234 52.5,63.5C 53.1414,65.2955 54.1414,66.7955 55.5,68C 47.8248,69.8925 46.9915,73.0591 53,77.5C 54.1223,79.4205 54.9556,81.4205 55.5,83.5C 52.0974,82.5614 48.7641,82.2281 45.5,82.5C 42.6503,79.8176 39.9836,76.9843 37.5,74C 40.0756,72.6166 39.7423,71.7833 36.5,71.5C 34.4649,72.2043 32.4649,72.871 30.5,73.5C 30.7261,70.7508 30.3928,68.0841 29.5,65.5C 27.9547,64.5481 26.288,64.2148 24.5,64.5C 24.5,63.5 24.5,62.5 24.5,61.5C 22.8333,61.5 21.1667,61.5 19.5,61.5C 19.4178,55.6775 16.4178,53.3442 10.5,54.5C 10.5,53.1667 10.5,51.8333 10.5,50.5C 13.2625,50.2036 15.7625,49.2036 18,47.5C 18.7175,48.4506 19.5509,48.6172 20.5,48C 22.5435,46.292 24.2101,44.292 25.5,42C 27.6228,41.1853 29.6228,40.1853 31.5,39C 30.9781,38.4387 30.6448,37.772 30.5,37C 33.7753,34.2006 36.442,31.0339 38.5,27.5C 39.2249,23.4681 40.0582,19.4681 41,15.5C 41.4974,18.146 41.6641,20.8127 41.5,23.5 Z"/></g>
</svg>
